<?xml version="1.0" encoding="UTF-8"?>
<!DOCTYPE svg PUBLIC "-//W3C//DTD SVG 1.1//EN" "http://www.w3.org/Graphics/SVG/1.1/DTD/svg11.dtd">
<!-- Creator: CorelDRAW 2021 (64-Bit) -->
<svg xmlns="http://www.w3.org/2000/svg" xml:space="preserve" width="292px" height="100px" version="1.1" style="shape-rendering:geometricPrecision; text-rendering:geometricPrecision; image-rendering:optimizeQuality; fill-rule:evenodd; clip-rule:evenodd"
viewBox="0 0 31.76 10.9"
 xmlns:xlink="http://www.w3.org/1999/xlink"
 xmlns:xodm="http://www.corel.com/coreldraw/odm/2003">
 <defs>
  <style type="text/css">
   <![CDATA[
    .fil0 {fill:#5B4631;fill-rule:nonzero}
   ]]>
  </style>
 </defs>
 <g id="Capa_x0020_1">
  <metadata id="CorelCorpID_0Corel-Layer"/>
  <g id="_2048138443360">
   <path class="fil0" d="M19.15 3.2l0 -2.84c0,-0.2 -0.16,-0.36 -0.35,-0.36l-2.61 0c-0.13,0 -0.26,0.08 -0.32,0.2l-0.59 1.42c-0.09,0.17 -0.02,0.39 0.16,0.48l0.94 0.53 -1.14 1.53 0 -0.96c0,-0.14 -0.07,-0.26 -0.19,-0.32l-1.03 -0.57 0.61 -1.84c0.04,-0.11 0.02,-0.23 -0.05,-0.32 -0.06,-0.1 -0.17,-0.15 -0.29,-0.15l-2.6 0c-0.2,0 -0.36,0.16 -0.36,0.36l0 2.84c0,1.75 1.18,3.29 2.85,3.76l0 1.81 -0.36 0c-0.98,0 -1.78,0.8 -1.78,1.78 0,0.19 0.16,0.35 0.36,0.35l5.69 0c0.19,0 0.35,-0.16 0.35,-0.35 0,-0.98 -0.8,-1.78 -1.78,-1.78l-0.35 0 0 -1.81c1.66,-0.47 2.84,-2.01 2.84,-3.76z"/>
   <path class="fil0" d="M4.01 0.15l3.36 4.07c0,0 0.51,0.48 -0.04,0.48 -0.56,0 -1.9,0 -1.9,0 0,0 0,0.33 0,0.82 0,1.43 0,4.04 0,5.09 0,0 0.08,0.29 -0.36,0.29 -0.44,0 -2.35,0 -2.67,0 -0.31,0 -0.3,-0.24 -0.3,-0.24 0,-1.03 0,-3.72 0,-5.1 0,-0.45 0,-0.74 0,-0.74 0,0 -1.07,0 -1.75,0 -0.67,0 -0.17,-0.5 -0.17,-0.5 0,0 2.86,-3.8 3.26,-4.2 0.29,-0.29 0.57,0.03 0.57,0.03z"/>
   <path class="fil0" d="M26.65 9.2c0,0.19 -0.15,0.34 -0.34,0.34 -0.19,0 -0.34,-0.15 -0.34,-0.34 0,-0.38 -0.31,-0.68 -0.68,-0.68 -0.38,0 -0.68,0.3 -0.68,0.68 0,0.89 0.69,1.62 1.56,1.69 0.05,0.01 0.09,0.01 0.14,0.01 0.05,0 0.09,0 0.14,-0.01 0.87,-0.07 1.56,-0.8 1.56,-1.69l0 -4.37c0.1,-0.04 0.21,-0.06 0.34,-0.06 0.42,0 0.68,0.25 0.68,0.34 0,0.19 0.16,0.34 0.35,0.34 0.18,0 0.34,-0.15 0.34,-0.34 0,-0.09 0.26,-0.34 0.68,-0.34 0.41,0 0.68,0.25 0.68,0.34 0,0.19 0.15,0.34 0.34,0.34 0.19,0 0.34,-0.15 0.34,-0.34 0,-2.21 -1.63,-4.04 -3.75,-4.37l0 -0.06c0,-0.37 -0.3,-0.68 -0.68,-0.68 -0.37,0 -0.68,0.31 -0.68,0.68l0 0.06c-2.12,0.33 -3.75,2.16 -3.75,4.37 0,0.19 0.16,0.34 0.34,0.34 0.19,0 0.34,-0.15 0.34,-0.34 0,-0.09 0.27,-0.34 0.69,-0.34 0.41,0 0.68,0.25 0.68,0.34 0,0.19 0.15,0.34 0.34,0.34 0.19,0 0.34,-0.15 0.34,-0.34 0,-0.09 0.27,-0.34 0.68,-0.34 0.13,0 0.24,0.02 0.34,0.06l0 4.37z"/>
  </g>
 </g>
</svg>
