<?xml version="1.0" encoding="UTF-8"?>
<!DOCTYPE svg PUBLIC "-//W3C//DTD SVG 1.1//EN" "http://www.w3.org/Graphics/SVG/1.1/DTD/svg11.dtd">
<!-- Creator: CorelDRAW 2021 (64-Bit) -->
<svg xmlns="http://www.w3.org/2000/svg" xml:space="preserve" width="745px" height="1000px" version="1.1" style="shape-rendering:geometricPrecision; text-rendering:geometricPrecision; image-rendering:optimizeQuality; fill-rule:evenodd; clip-rule:evenodd"
viewBox="0 0 316.09 424.4"
 xmlns:xlink="http://www.w3.org/1999/xlink"
 xmlns:xodm="http://www.corel.com/coreldraw/odm/2003">
 <defs>
  <style type="text/css">
   <![CDATA[
    .fil6 {fill:black}
    .fil1 {fill:black}
    .fil2 {fill:black}
    .fil3 {fill:white}
    .fil4 {fill:white}
    .fil5 {fill:black;fill-rule:nonzero}
    .fil0 {fill:white;fill-rule:nonzero}
   ]]>
  </style>
 </defs>
 <g id="Capa_x0020_1">
  <metadata id="CorelCorpID_0Corel-Layer"/>
  <path class="fil0" d="M0 130.03c-0.04,-38 17.02,-71.86 45.54,-95.66 29.13,-24.32 69.13,-36.9 111.33,-33.95 24.5,1.72 44.83,10.13 60.95,21.79 19.8,14.33 33.21,33.65 40.19,51.54 2.73,6.99 9.1,19.42 15.78,22.71 1.55,0.76 2.52,0.23 4,-0.92 13.87,-10.75 35.1,-3.55 37.16,13.65 0.98,8.2 -2.92,17.46 -13.16,25.23 -9.65,7.32 -24.91,11.92 -41.53,9.73 -18.21,-2.4 -36.45,-12.31 -51.4,-32 -13.92,-18.35 -35.77,-32.63 -56.65,-16.79 -6.13,4.65 -13.71,13.32 -15.35,20.71 -4.12,18.52 25.31,36.11 41.38,43.81 26.7,12.79 58.73,20.44 79.38,20.44l44.01 0c7.98,0 14.46,6.48 14.46,14.47l0 215.15c0,7.99 -6.48,14.46 -14.46,14.46l-286.87 0c-7.99,0 -14.46,-6.47 -14.46,-14.46l-0.3 -279.91z"/>
  <path class="fil1" d="M14.76 194.79l286.87 0 0 199.86c0,8.41 -6.88,15.29 -15.29,15.29l-256.29 0c-8.41,0 -15.29,-6.88 -15.29,-15.29l0 -199.86z"/>
  <path class="fil2" d="M257.62 194.79l-19 3.26 -208.12 -2.31c-46.37,-98.76 22.32,-188.12 125.41,-180.91 48,3.36 77.6,35.86 88.65,64.17 7.71,19.76 24.13,41.86 42.04,27.96 8.1,-6.28 22.46,2.53 7.57,15.12 -13.87,11.74 -48.3,15.01 -73.84,-18.64 -25.54,-33.65 -61.38,-40.86 -88.02,-8.67 -45.73,55.25 72.93,100.02 125.31,100.02z"/>
  <path class="fil3" d="M99.88 154.71c34.75,-16.16 49.95,16.52 15.2,32.68 -34.75,16.17 -49.95,-16.52 -15.2,-32.68z"/>
  <path class="fil3" d="M86.22 104.46c31.88,2.08 29.92,32.07 -1.96,29.99 -31.87,-2.08 -29.92,-32.07 1.96,-29.99z"/>
  <path class="fil3" d="M115.79 59.5c18.58,19.5 0.24,36.98 -18.34,17.48 -18.58,-19.51 -0.24,-36.98 18.34,-17.48z"/>
  <path class="fil3" d="M157.98 47.28c2.42,21.48 -17.79,23.76 -20.21,2.27 -2.42,-21.48 17.79,-23.76 20.21,-2.27z"/>
  <path class="fil3" d="M181.21 52.12c6.07,-16.85 23.32,-11.38 17.24,5.47 -6.07,16.85 -23.32,11.38 -17.24,-5.47z"/>
  <path class="fil3" d="M212.87 72.49c9.89,-10.06 19.35,-0.76 9.46,9.3 -9.89,10.05 -19.35,0.75 -9.46,-9.3z"/>
  <g id="_1534367610352">
   <path class="fil4" d="M90.2 229.15l135.98 0c15.26,0 27.63,12.37 27.63,27.63 0,15.26 -12.37,27.63 -27.63,27.63l-0.09 0 -135.8 0 -0.09 0c-15.26,0 -27.63,-12.37 -27.63,-27.63 0,-15.26 12.37,-27.63 27.63,-27.63z"/>
   <path class="fil5" d="M226.04 237.44c1.59,0 3.14,0.19 4.63,0.56 -8.03,9.29 4.86,22.18 14.15,14.15 0.36,1.48 0.56,3.03 0.56,4.63 0,10.68 -8.66,19.34 -19.34,19.34 -10.69,0 -19.35,-8.66 -19.35,-19.34 0,-10.68 8.66,-19.34 19.35,-19.34z"/>
   <g>
    <path class="fil6" d="M226.04 229.15c-15.26,0 -27.64,12.37 -27.64,27.63 0,15.26 12.38,27.63 27.64,27.63 15.26,0 27.63,-12.37 27.63,-27.63 0,-15.26 -12.37,-27.63 -27.63,-27.63zm-23.54 4.09c6.02,-6.02 14.34,-9.75 23.54,-9.75 9.19,0 17.51,3.73 23.54,9.75 6.02,6.03 9.75,14.35 9.75,23.54 0,9.19 -3.73,17.51 -9.75,23.54 -6.03,6.02 -14.35,9.75 -23.54,9.75 -9.2,0 -17.52,-3.73 -23.54,-9.75 -6.03,-6.03 -9.75,-14.35 -9.75,-23.54 0,-9.19 3.72,-17.51 9.75,-23.54z"/>
   </g>
  </g>
 </g>
</svg>
