<?xml version="1.0" encoding="UTF-8"?>
<!DOCTYPE svg PUBLIC "-//W3C//DTD SVG 1.1//EN" "http://www.w3.org/Graphics/SVG/1.1/DTD/svg11.dtd">
<!-- Creator: CorelDRAW 2021 (64-Bit) -->
<svg xmlns="http://www.w3.org/2000/svg" xml:space="preserve" width="745px" height="1000px" version="1.1" style="shape-rendering:geometricPrecision; text-rendering:geometricPrecision; image-rendering:optimizeQuality; fill-rule:evenodd; clip-rule:evenodd"
viewBox="0 0 143.97 193.31"
 xmlns:xlink="http://www.w3.org/1999/xlink"
 xmlns:xodm="http://www.corel.com/coreldraw/odm/2003">
 <defs>
  <style type="text/css">
   <![CDATA[
    .fil0 {fill:none;fill-rule:nonzero}
    .fil1 {fill:#051D09}
    .fil2 {fill:#A98258}
    .fil3 {fill:#FFEDAD}
    .fil5 {fill:#5B4631;fill-rule:nonzero}
    .fil4 {fill:#801B06;fill-rule:nonzero}
   ]]>
  </style>
 </defs>
 <g id="Capa_x0020_1">
  <metadata id="CorelCorpID_0Corel-Layer"/>
  <path class="fil0" d="M0 59.23c-0.02,-17.31 7.75,-32.73 20.74,-43.58 13.27,-11.07 31.49,-16.8 50.71,-15.46 11.16,0.78 20.42,4.61 27.77,9.93 9.01,6.52 15.12,15.32 18.3,23.47 1.24,3.19 4.14,8.85 7.19,10.35 0.7,0.34 1.14,0.1 1.82,-0.42 6.32,-4.9 15.98,-1.62 16.92,6.21 0.45,3.74 -1.33,7.96 -5.99,11.49 -4.4,3.34 -11.35,5.43 -18.91,4.44 -8.3,-1.1 -16.61,-5.61 -23.42,-14.58 -6.34,-8.36 -16.29,-14.86 -25.8,-7.64 -2.8,2.11 -6.24,6.06 -6.99,9.43 -1.88,8.43 11.53,16.45 18.85,19.95 12.16,5.83 26.75,9.31 36.15,9.31l20.05 0c3.63,0 6.58,2.95 6.58,6.59l0 98c0,3.64 -2.95,6.59 -6.58,6.59l-130.67 0c-3.64,0 -6.59,-2.95 -6.59,-6.59l-0.13 -127.49z"/>
  <path class="fil1" d="M117.34 88.72l-8.65 1.49 -94.8 -1.05c-21.12,-44.99 10.17,-85.69 57.12,-82.4 21.87,1.53 35.35,16.33 40.38,29.22 3.52,9 11,19.07 19.15,12.74 3.69,-2.86 10.23,1.15 3.45,6.89 -6.32,5.34 -22,6.83 -33.63,-8.49 -11.63,-15.33 -27.96,-18.62 -40.1,-3.95 -20.82,25.16 33.22,45.55 57.08,45.55z"/>
  <polygon class="fil2" points="6.72,88.72 137.39,88.72 137.39,186.72 6.72,186.72 "/>
  <path class="fil1" d="M42.82 104.37l61.94 0c6.95,0 12.58,5.64 12.58,12.59 0,6.95 -5.63,12.59 -12.58,12.59l-0.04 0 -61.86 0 -0.04 0c-6.95,0 -12.58,-5.64 -12.58,-12.59 0,-6.95 5.63,-12.59 12.58,-12.59z"/>
  <circle class="fil3" cx="104.76" cy="116.96" r="12.59"/>
  <path class="fil4" d="M104.69 108.15c0.73,0 1.43,0.09 2.11,0.25 -3.66,4.24 2.21,10.11 6.45,6.45 0.16,0.68 0.25,1.38 0.25,2.11 0,4.87 -3.94,8.81 -8.81,8.81 -4.86,0 -8.81,-3.95 -8.81,-8.81 0,-4.87 3.95,-8.81 8.81,-8.81z"/>
  <path class="fil3" d="M45.49 70.47c15.83,-7.36 22.75,7.52 6.93,14.89 -15.83,7.36 -22.76,-7.53 -6.93,-14.89z"/>
  <path class="fil3" d="M39.27 47.58c14.52,0.95 13.63,14.61 -0.89,13.66 -14.52,-0.95 -13.63,-14.61 0.89,-13.66z"/>
  <path class="fil3" d="M52.74 27.1c8.46,8.89 0.11,16.84 -8.35,7.96 -8.47,-8.88 -0.11,-16.84 8.35,-7.96z"/>
  <path class="fil3" d="M71.96 21.53c1.1,9.79 -8.1,10.83 -9.21,1.04 -1.1,-9.79 8.11,-10.82 9.21,-1.04z"/>
  <path class="fil3" d="M82.54 23.74c2.76,-7.68 10.62,-5.19 7.85,2.49 -2.77,7.68 -10.62,5.19 -7.85,-2.49z"/>
  <path class="fil3" d="M96.96 33.02c4.5,-4.58 8.81,-0.35 4.31,4.23 -4.51,4.58 -8.81,0.35 -4.31,-4.23z"/>
  <g id="_2153713426432">
   <path class="fil5" d="M79.61 162.97l0 -6.56c0,-0.46 -0.37,-0.82 -0.82,-0.82l-6.02 0c-0.31,0 -0.59,0.17 -0.73,0.45l-1.37 3.28c-0.2,0.41 -0.04,0.9 0.37,1.1l2.17 1.23 -2.63 3.54 0 -2.22c0,-0.31 -0.17,-0.59 -0.45,-0.73l-2.37 -1.32 1.41 -4.25c0.09,-0.25 0.04,-0.53 -0.11,-0.74 -0.15,-0.22 -0.4,-0.34 -0.67,-0.34l-6.02 0c-0.45,0 -0.82,0.36 -0.82,0.82l0 6.56c0,4.05 2.73,7.6 6.57,8.69l0 4.17 -0.82 0c-2.26,0 -4.1,1.84 -4.1,4.11 0,0.45 0.36,0.82 0.82,0.82l13.13 0c0.45,0 0.82,-0.37 0.82,-0.82 0,-2.27 -1.84,-4.11 -4.1,-4.11l-0.83 0 0 -4.17c3.85,-1.09 6.57,-4.64 6.57,-8.69z"/>
   <path class="fil5" d="M44.64 155.94l7.76 9.39c0,0 1.18,1.11 -0.1,1.11 -1.28,0 -4.37,0 -4.37,0 0,0 0,0.75 0,1.9 0,3.31 0,9.31 0,11.75 0,0 0.17,0.67 -0.83,0.67 -1.01,0 -5.44,0 -6.16,0 -0.72,0 -0.71,-0.56 -0.71,-0.56 0,-2.38 0,-8.58 0,-11.78 0,-1.03 0,-1.7 0,-1.7 0,0 -2.48,0 -4.04,0 -1.55,0 -0.38,-1.17 -0.38,-1.17 0,0 6.6,-8.76 7.52,-9.69 0.67,-0.66 1.31,0.08 1.31,0.08z"/>
   <path class="fil5" d="M96.92 176.83c0,0.43 -0.35,0.78 -0.78,0.78 -0.44,0 -0.79,-0.35 -0.79,-0.78 0,-0.87 -0.71,-1.58 -1.57,-1.58 -0.87,0 -1.58,0.71 -1.58,1.58 0,2.05 1.6,3.73 3.62,3.9 0.1,0.02 0.21,0.03 0.32,0.03 0.1,0 0.21,-0.01 0.31,-0.03 2.02,-0.17 3.62,-1.85 3.62,-3.9l0 -10.09c0.22,-0.08 0.49,-0.14 0.78,-0.14 0.96,0 1.58,0.58 1.58,0.79 0,0.43 0.35,0.78 0.78,0.78 0.44,0 0.79,-0.35 0.79,-0.78 0,-0.21 0.62,-0.79 1.57,-0.79 0.96,0 1.58,0.58 1.58,0.79 0,0.43 0.35,0.78 0.78,0.78 0.44,0 0.79,-0.35 0.79,-0.78 0,-5.11 -3.76,-9.34 -8.65,-10.1l0 -0.13c0,-0.87 -0.71,-1.57 -1.57,-1.57 -0.87,0 -1.58,0.7 -1.58,1.57l0 0.13c-4.89,0.76 -8.65,4.99 -8.65,10.1 0,0.43 0.35,0.78 0.79,0.78 0.43,0 0.78,-0.35 0.78,-0.78 0,-0.21 0.62,-0.79 1.58,-0.79 0.95,0 1.57,0.58 1.57,0.79 0,0.43 0.35,0.78 0.79,0.78 0.43,0 0.78,-0.35 0.78,-0.78 0,-0.21 0.62,-0.79 1.58,-0.79 0.29,0 0.56,0.06 0.78,0.14l0 10.09z"/>
  </g>
 </g>
</svg>
