<?xml version="1.0" encoding="UTF-8"?>
<!DOCTYPE svg PUBLIC "-//W3C//DTD SVG 1.1//EN" "http://www.w3.org/Graphics/SVG/1.1/DTD/svg11.dtd">
<!-- Creator: CorelDRAW 2021 (64-Bit) -->
<svg xmlns="http://www.w3.org/2000/svg" xml:space="preserve" width="745px" height="1000px" version="1.1" style="shape-rendering:geometricPrecision; text-rendering:geometricPrecision; image-rendering:optimizeQuality; fill-rule:evenodd; clip-rule:evenodd"
viewBox="0 0 143.97 193.31"
 xmlns:xlink="http://www.w3.org/1999/xlink"
 xmlns:xodm="http://www.corel.com/coreldraw/odm/2003">
 <defs>
  <style type="text/css">
   <![CDATA[
    .str2 {stroke:#FFEDAD;stroke-width:0.17;stroke-miterlimit:22.9256}
    .str1 {stroke:#5B4631;stroke-width:1.14;stroke-linecap:round;stroke-linejoin:round;stroke-miterlimit:1145.92}
    .str0 {stroke:#F5BC7F;stroke-width:1.14;stroke-linecap:round;stroke-linejoin:round;stroke-miterlimit:1145.92}
    .fil3 {fill:none}
    .fil0 {fill:none;fill-rule:nonzero}
    .fil2 {fill:#A98258}
    .fil9 {fill:#FFEDAD}
    .fil6 {fill:#5B4631;fill-rule:nonzero}
    .fil5 {fill:#F5BC7F;fill-rule:nonzero}
    .fil4 {fill:url(#id2)}
    .fil7 {fill:url(#id3)}
    .fil1 {fill:url(#id4)}
    .fil8 {fill:url(#id5);fill-rule:nonzero}
   ]]>
  </style>
   <clipPath id="id0">
    <path d="M6.72 88.72l130.67 0 0 91.04c0,3.83 -3.14,6.96 -6.97,6.96l-116.73 0c-3.83,0 -6.97,-3.13 -6.97,-6.96l0 -91.04z"/>
   </clipPath>
   <clipPath id="id1">
    <path d="M41.09 104.37l61.93 0c6.95,0 12.59,5.64 12.59,12.59 0,6.95 -5.64,12.59 -12.59,12.59l-0.04 0 -61.85 0 -0.04 0c-6.95,0 -12.59,-5.64 -12.59,-12.59 0,-6.95 5.64,-12.59 12.59,-12.59z"/>
   </clipPath>
  <linearGradient id="id2" gradientUnits="userSpaceOnUse" x1="72.05" y1="104.37" x2="72.05" y2="129.55">
   <stop offset="0" style="stop-opacity:1; stop-color:#051D09"/>
   <stop offset="1" style="stop-opacity:1; stop-color:#163310"/>
  </linearGradient>
  <radialGradient id="id3" gradientUnits="userSpaceOnUse" gradientTransform="matrix(1.35137 -0 -0 1.35137 -38 -40)" cx="107.3" cy="112.43" r="9.31" fx="107.3" fy="112.43">
   <stop offset="0" style="stop-opacity:1; stop-color:white"/>
   <stop offset="0.25098" style="stop-opacity:1; stop-color:#FFF6D6"/>
   <stop offset="1" style="stop-opacity:1; stop-color:#FFEDAD"/>
  </radialGradient>
  <radialGradient id="id4" gradientUnits="userSpaceOnUse" gradientTransform="matrix(1.19048 -0 -0 0.76727 -16 13)" cx="83.73" cy="55.92" r="28.57" fx="83.73" fy="55.92">
   <stop offset="0" style="stop-opacity:1; stop-color:#669933"/>
   <stop offset="0.4" style="stop-opacity:1; stop-color:#355B1E"/>
   <stop offset="1" style="stop-opacity:1; stop-color:#051D09"/>
  </radialGradient>
  <radialGradient id="id5" gradientUnits="userSpaceOnUse" gradientTransform="matrix(-0.999984 -0 -0 1 206 0)" cx="102.96" cy="116.96" r="82.36" fx="102.96" fy="116.96">
   <stop offset="0" style="stop-opacity:1; stop-color:#410E03"/>
   <stop offset="1" style="stop-opacity:1; stop-color:#801B06"/>
  </radialGradient>
 </defs>
 <g id="Capa_x0020_1">
  <metadata id="CorelCorpID_0Corel-Layer"/>
  <path class="fil0" d="M0 59.23c-0.02,-17.31 7.75,-32.73 20.74,-43.58 13.27,-11.07 31.49,-16.8 50.71,-15.46 11.16,0.78 20.42,4.61 27.77,9.93 9.01,6.52 15.12,15.32 18.3,23.47 1.24,3.19 4.14,8.85 7.19,10.35 0.7,0.34 1.14,0.1 1.82,-0.42 6.32,-4.9 15.98,-1.62 16.92,6.21 0.45,3.74 -1.33,7.96 -5.99,11.49 -4.39,3.34 -11.35,5.43 -18.91,4.44 -8.3,-1.1 -16.61,-5.61 -23.42,-14.58 -6.34,-8.36 -16.29,-14.86 -25.8,-7.64 -2.79,2.12 -6.24,6.06 -6.99,9.43 -1.88,8.43 11.53,16.45 18.85,19.95 12.16,5.83 26.75,9.31 36.15,9.31l20.05 0c3.63,0 6.58,2.95 6.58,6.59l0 98c0,3.64 -2.95,6.59 -6.58,6.59l-130.67 0c-3.64,0 -6.59,-2.95 -6.59,-6.59l-0.13 -127.49z"/>
  <path class="fil1" d="M117.34 88.72l-8.65 1.49 -94.8 -1.05c-21.12,-44.99 10.17,-85.69 57.12,-82.4 21.87,1.53 35.35,16.33 40.38,29.22 3.52,9 11,19.07 19.15,12.74 3.69,-2.86 10.23,1.15 3.45,6.89 -6.32,5.34 -22,6.83 -33.63,-8.49 -11.63,-15.33 -27.96,-18.62 -40.1,-3.95 -20.82,25.16 33.22,45.55 57.08,45.55z"/>
  <path class="fil2" d="M6.72 88.72l130.67 0 0 91.04c0,3.83 -3.14,6.96 -6.97,6.96l-116.73 0c-3.83,0 -6.97,-3.13 -6.97,-6.96l0 -91.04z"/>
  <g style="clip-path:url(#id0)">
   <g id="_1534389412672">
    <g>
     <line id="_1" class="fil3 str0" x1="137.39" y1="88.72" x2="6.72" y2= "88.72" />
    </g>
    <g>
     <line class="fil3 str1" x1="137.39" y1="186.72" x2="6.72" y2= "186.72" />
    </g>
   </g>
  </g>
  <path class="fil3" d="M6.72 88.72l130.67 0 0 91.04c0,3.83 -3.14,6.96 -6.97,6.96l-116.73 0c-3.83,0 -6.97,-3.13 -6.97,-6.96l0 -91.04z"/>
  <path class="fil4" d="M41.09 104.37l61.93 0c6.95,0 12.59,5.64 12.59,12.59 0,6.95 -5.64,12.59 -12.59,12.59l-0.04 0 -61.85 0 -0.04 0c-6.95,0 -12.59,-5.64 -12.59,-12.59 0,-6.95 5.64,-12.59 12.59,-12.59z"/>
  <g style="clip-path:url(#id1)">
   <g>
    <g>
     <path id="_1_0" class="fil5" d="M115.61 128.97c0.21,0 0.38,0.26 0.38,0.58 0,0.31 -0.17,0.57 -0.38,0.57l0 -1.15zm-87.11 0l87.11 0 0 1.15 -87.11 0 0 -1.15zm0 1.15c-0.21,0 -0.38,-0.26 -0.38,-0.57 0,-0.32 0.17,-0.58 0.38,-0.58l0 1.15z"/>
    </g>
    <g>
     <path class="fil6" d="M115.61 103.8c0.21,0 0.38,0.26 0.38,0.57 0,0.32 -0.17,0.58 -0.38,0.58l0 -1.15zm-87.11 0l87.11 0 0 1.15 -87.11 0 0 -1.15zm0 1.15c-0.21,0 -0.38,-0.26 -0.38,-0.58 0,-0.31 0.17,-0.57 0.38,-0.57l0 1.15z"/>
    </g>
    <g>
     <path class="fil3 str2" d="M103.02 104.37c-6.95,0 -12.58,5.64 -12.58,12.59 0,6.95 5.63,12.59 12.58,12.59 6.95,0 12.59,-5.64 12.59,-12.59 0,-6.95 -5.64,-12.59 -12.59,-12.59z"/>
     <path id="_1_1" class="fil7" d="M103.02 104.37c-6.95,0 -12.58,5.64 -12.58,12.59 0,6.95 5.63,12.59 12.58,12.59 6.95,0 12.59,-5.64 12.59,-12.59 0,-6.95 -5.64,-12.59 -12.59,-12.59z"/>
    </g>
    <path class="fil8" d="M102.96 108.15c0.72,0 1.43,0.09 2.11,0.25 -3.66,4.24 2.21,10.11 6.44,6.45 0.17,0.68 0.26,1.38 0.26,2.11 0,4.87 -3.95,8.81 -8.81,8.81 -4.87,0 -8.81,-3.94 -8.81,-8.81 0,-4.87 3.94,-8.81 8.81,-8.81z"/>
   </g>
  </g>
  <path class="fil3" d="M41.09 104.37l61.93 0c6.95,0 12.59,5.64 12.59,12.59 0,6.95 -5.64,12.59 -12.59,12.59l-0.04 0 -61.85 0 -0.04 0c-6.95,0 -12.59,-5.64 -12.59,-12.59 0,-6.95 5.64,-12.59 12.59,-12.59z"/>
  <path class="fil9" d="M45.49 70.47c15.83,-7.36 22.75,7.52 6.93,14.89 -15.83,7.36 -22.76,-7.53 -6.93,-14.89z"/>
  <path class="fil9" d="M39.27 47.58c14.52,0.95 13.63,14.61 -0.89,13.66 -14.52,-0.95 -13.63,-14.61 0.89,-13.66z"/>
  <path class="fil9" d="M52.74 27.1c8.46,8.89 0.11,16.84 -8.35,7.96 -8.47,-8.88 -0.11,-16.84 8.35,-7.96z"/>
  <path class="fil9" d="M71.96 21.53c1.1,9.79 -8.1,10.83 -9.21,1.04 -1.1,-9.79 8.11,-10.82 9.21,-1.04z"/>
  <path class="fil9" d="M82.54 23.74c2.76,-7.68 10.62,-5.19 7.85,2.49 -2.77,7.68 -10.62,5.19 -7.85,-2.49z"/>
  <path class="fil9" d="M96.96 33.02c4.5,-4.58 8.81,-0.35 4.31,4.23 -4.51,4.58 -8.81,0.35 -4.31,-4.23z"/>
  <g>
   <path class="fil6" d="M79.61 161.97l0 -6.56c0,-0.46 -0.37,-0.83 -0.82,-0.83l-6.02 0c-0.31,0 -0.59,0.18 -0.73,0.46l-1.37 3.28c-0.2,0.41 -0.04,0.9 0.37,1.1l2.17 1.23 -2.63 3.54 0 -2.22c0,-0.31 -0.17,-0.59 -0.45,-0.73l-2.37 -1.33 1.41 -4.25c0.09,-0.25 0.04,-0.52 -0.11,-0.73 -0.15,-0.22 -0.4,-0.35 -0.67,-0.35l-6.01 0c-0.46,0 -0.83,0.37 -0.83,0.83l0 6.56c0,4.05 2.73,7.6 6.57,8.69l0 4.17 -0.82 0c-2.26,0 -4.1,1.84 -4.1,4.11 0,0.45 0.36,0.82 0.82,0.82l13.13 0c0.45,0 0.82,-0.37 0.82,-0.82 0,-2.27 -1.84,-4.11 -4.1,-4.11l-0.82 0 0 -4.17c3.84,-1.09 6.56,-4.64 6.56,-8.69z"/>
   <path class="fil6" d="M44.64 154.94l7.76 9.38c0,0 1.18,1.12 -0.1,1.12 -1.28,0 -4.37,0 -4.37,0 0,0 0,0.75 0,1.9 0,3.3 0,9.31 0,11.75 0,0 0.17,0.67 -0.83,0.67 -1.01,0 -5.44,0 -6.16,0 -0.72,0 -0.71,-0.56 -0.71,-0.56 0,-2.38 0,-8.59 0,-11.78 0,-1.03 0,-1.7 0,-1.7 0,0 -2.48,0 -4.04,0 -1.55,0 -0.38,-1.17 -0.38,-1.17 0,0 6.61,-8.77 7.52,-9.69 0.67,-0.66 1.31,0.08 1.31,0.08z"/>
   <path class="fil6" d="M96.92 175.82c0,0.44 -0.35,0.79 -0.78,0.79 -0.44,0 -0.79,-0.35 -0.79,-0.79 0,-0.87 -0.71,-1.57 -1.57,-1.57 -0.87,0 -1.58,0.7 -1.58,1.57 0,2.06 1.6,3.74 3.62,3.9 0.1,0.03 0.21,0.04 0.32,0.04 0.1,0 0.21,-0.01 0.31,-0.04 2.02,-0.16 3.62,-1.84 3.62,-3.9l0 -10.08c0.22,-0.09 0.49,-0.14 0.79,-0.14 0.95,0 1.57,0.58 1.57,0.78 0,0.44 0.35,0.79 0.78,0.79 0.44,0 0.79,-0.35 0.79,-0.79 0,-0.2 0.62,-0.78 1.57,-0.78 0.96,0 1.58,0.58 1.58,0.78 0,0.44 0.35,0.79 0.78,0.79 0.44,0 0.79,-0.35 0.79,-0.79 0,-5.1 -3.76,-9.33 -8.65,-10.09l0 -0.13c0,-0.87 -0.71,-1.58 -1.57,-1.58 -0.87,0 -1.58,0.71 -1.58,1.58l0 0.13c-4.89,0.76 -8.65,4.99 -8.65,10.09 0,0.44 0.35,0.79 0.79,0.79 0.43,0 0.78,-0.35 0.78,-0.79 0,-0.2 0.62,-0.78 1.58,-0.78 0.95,0 1.57,0.58 1.57,0.78 0,0.44 0.35,0.79 0.79,0.79 0.43,0 0.78,-0.35 0.78,-0.79 0,-0.2 0.62,-0.78 1.58,-0.78 0.29,0 0.56,0.05 0.78,0.14l0 10.08z"/>
  </g>
 </g>
</svg>
