<?xml version="1.0" encoding="UTF-8"?>
<!DOCTYPE svg PUBLIC "-//W3C//DTD SVG 1.1//EN" "http://www.w3.org/Graphics/SVG/1.1/DTD/svg11.dtd">
<!-- Creator: CorelDRAW 2021 (64-Bit) -->
<svg xmlns="http://www.w3.org/2000/svg" xml:space="preserve" width="827px" height="829px" version="1.1" style="shape-rendering:geometricPrecision; text-rendering:geometricPrecision; image-rendering:optimizeQuality; fill-rule:evenodd; clip-rule:evenodd"
viewBox="0 0 149.59 149.94"
 xmlns:xlink="http://www.w3.org/1999/xlink"
 xmlns:xodm="http://www.corel.com/coreldraw/odm/2003">
 <defs>
  <style type="text/css">
   <![CDATA[
    .str0 {stroke:#FFEDAD;stroke-width:0.16;stroke-miterlimit:22.9256}
    .fil5 {fill:none}
    .fil0 {fill:#051D09}
    .fil7 {fill:#5B4631}
    .fil4 {fill:#A98258}
    .fil9 {fill:#A98258}
    .fil15 {fill:#E6E6E6}
    .fil1 {fill:#FFF6D6}
    .fil2 {fill:#FFF6D6}
    .fil3 {fill:#041C08;fill-rule:nonzero}
    .fil16 {fill:#1A1A1A;fill-rule:nonzero}
    .fil8 {fill:#5B4631;fill-rule:nonzero}
    .fil6 {fill:#F5BC7F;fill-rule:nonzero}
    .fil10 {fill:#FFEDAD;fill-rule:nonzero}
    .fil12 {fill:#FFF6D6;fill-rule:nonzero}
    .fil11 {fill:url(#id2)}
    .fil13 {fill:url(#id3)}
    .fil14 {fill:url(#id4);fill-rule:nonzero}
   ]]>
  </style>
   <clipPath id="id0">
    <path d="M21.37 78.71l106.85 0 0 66.96c0,2.36 -1.92,4.27 -4.28,4.27l-98.3 0c-2.36,0 -4.27,-1.91 -4.27,-4.27l0 -66.96z"/>
   </clipPath>
   <clipPath id="id1">
    <path d="M61.65 87.88l26.29 0c2.95,0 5.34,2.39 5.34,5.35 0,2.95 -2.39,5.34 -5.34,5.34l-0.02 0 -26.25 0 -0.02 0c-2.95,0 -5.34,-2.39 -5.34,-5.34 0,-2.96 2.39,-5.35 5.34,-5.35z"/>
   </clipPath>
  <linearGradient id="id2" gradientUnits="userSpaceOnUse" x1="74.79" y1="87.88" x2="74.79" y2="98.57">
   <stop offset="0" style="stop-opacity:1; stop-color:#051D09"/>
   <stop offset="1" style="stop-opacity:1; stop-color:#163310"/>
  </linearGradient>
  <radialGradient id="id3" gradientUnits="userSpaceOnUse" gradientTransform="matrix(1.35133 -0 -0 1.35133 -32 -32)" cx="91.04" cy="91.92" r="4.67" fx="91.04" fy="91.92">
   <stop offset="0" style="stop-opacity:1; stop-color:white"/>
   <stop offset="0.25098" style="stop-opacity:1; stop-color:#FFF6D6"/>
   <stop offset="1" style="stop-opacity:1; stop-color:#FFEDAD"/>
  </radialGradient>
  <radialGradient id="id4" gradientUnits="userSpaceOnUse" gradientTransform="matrix(-0.999968 -0 -0 1.00001 178 0)" cx="88.87" cy="94.19" r="77.08" fx="88.87" fy="94.19">
   <stop offset="0" style="stop-opacity:1; stop-color:#410E03"/>
   <stop offset="1" style="stop-opacity:1; stop-color:#801B06"/>
  </radialGradient>
 </defs>
 <g id="Capa_x0020_1">
  <metadata id="CorelCorpID_0Corel-Layer"/>
  <polygon class="fil0" points="21.37,78.71 21.37,78.71 128.22,78.71 114.63,57.34 101.05,57.34 48.54,57.34 34.95,57.34 "/>
  <path class="fil1" d="M115.41 36.06c-2.62,-1.34 -6.9,1.32 -11.66,2.92 -4.77,1.59 -8.93,0.92 -14.62,5.77 -5.69,4.85 -9.46,15.5 -6.11,20.75 3.35,5.26 11.45,5.59 15.17,4.01 5.96,-2.54 -1.3,-14.26 1.49,-17.54 1.77,-2.1 22.1,-12.65 15.73,-15.91z"/>
  <path class="fil2" d="M35.69 41.02c2.24,-1.19 3.26,0.21 7.44,0.25 3.99,0.03 8.91,-0.68 13.88,2.92 5.16,3.73 8.47,12.85 4.41,16.38 -3.46,2.99 -8.06,4 -10.55,1.76 -3.51,-3.15 2.58,-7.47 -0.79,-11.63 -3.8,-4.7 -19.84,-6.78 -14.39,-9.68z"/>
  <path class="fil3" d="M111.13 7.48c18.91,1.38 25.88,26.51 3.28,39.21 -13.7,7.7 -18.45,17.41 3.02,31.02 -0.34,-0.21 -30.99,-0.35 -31.51,-0.14 -11.5,-15.27 -4.69,-35.83 14.1,-38.73 18.79,-2.9 24.15,-19.89 12.63,-21.54l-1.52 -9.82zm1 32.11c0.78,0.46 1.61,0.48 1.86,0.05 0.24,-0.42 -0.19,-1.13 -0.96,-1.59 -2.51,-1.46 -1.71,1.08 -0.9,1.54zm-4.1 -0.33c-2.34,-0.56 -2.68,1.31 -0.45,2.61 1.12,0.65 2.33,0.68 2.68,0.07 0.76,-1.3 -2.07,-2.64 -2.23,-2.68zm-9.16 1.82c-0.56,0.96 0.41,2.57 2.18,3.6 1.76,1.02 3.65,1.07 4.21,0.11 0.56,-0.97 -0.42,-2.58 -2.18,-3.6 -1.06,-0.61 -3.44,-1.44 -4.21,-0.11zm-8.06 3.63c-0.77,1.31 0.57,3.52 2.98,4.92 2.41,1.41 4.99,1.47 5.75,0.16 0.77,-1.32 -0.56,-3.53 -2.98,-4.93 -1.43,-0.83 -4.72,-1.93 -5.75,-0.15zm-5.92 7.06c-0.75,1.76 1.25,4.28 4.46,5.64 3.21,1.37 6.41,1.05 7.16,-0.7 0.75,-1.76 -1.25,-4.28 -4.46,-5.65 -1.82,-0.77 -6.15,-1.67 -7.16,0.71zm-1.49 9.77c-0.83,2.06 1.55,4.98 5.33,6.5 3.77,1.53 7.51,1.1 8.34,-0.96 0.84,-2.07 -1.54,-4.98 -5.32,-6.51 -2.41,-0.97 -7.25,-1.74 -8.35,0.97z"/>
  <path class="fil3" d="M100.57 0l4.4 5.8 6.16 1.68c6.43,5.99 -1.35,14.16 -1.35,14.16 -2.59,9.03 -13.74,18.83 -18.97,8.89 7.92,1.67 6.81,-4.51 9.17,-8.57 -9.81,-0.69 -16.17,-1.46 -15.98,11.19 -5.55,-5.36 -6.96,-11.62 -1.84,-17.77l-1.36 -2.38 3.22 0.45c0.6,-0.56 1.24,-1.09 1.91,-1.59l0.01 -4.6 3.22 2.5c0.9,-0.5 1.83,-0.97 2.78,-1.38l0.01 -5.49 4.87 3.78c0.69,-0.18 1.39,-0.34 2.08,-0.47l1.67 -6.2 0 0z"/>
  <path class="fil3" d="M40.24 46.45c12.07,3.96 15.01,13.29 -2.42,21.33l25.85 0.05c7.2,-8.83 2.04,-26.84 -12.74,-29.31 -14.78,-2.48 -17.82,-12.06 -8.73,-17.28 15.5,-8.89 20.04,16.91 2.34,9.47 11.32,8.95 20.2,-2.84 14.98,-10.29 -14.75,-21.06 -48.82,16.33 -19.28,26.03zm-1.89 -4.91c0.24,0.37 -0.08,0.87 -0.64,1.25 -0.57,0.38 -1.19,0.44 -1.4,0.13 -0.21,-0.31 0.19,-0.94 0.64,-1.24 0.45,-0.31 1.15,-0.5 1.4,-0.14zm4.12 0.53c0.36,0.52 -0.11,1.25 -0.93,1.8 -0.81,0.55 -1.71,0.64 -2.02,0.19 -0.3,-0.44 0.28,-1.36 0.93,-1.8 0.66,-0.44 1.67,-0.72 2.02,-0.19zm5.6 0.21c0.56,0.83 -0.18,1.96 -1.45,2.82 -1.28,0.86 -2.7,1 -3.17,0.3 -0.47,-0.7 0.44,-2.13 1.46,-2.82 1.02,-0.69 2.6,-1.13 3.16,-0.3zm6.25 1.46c0.76,1.12 -0.24,2.68 -1.99,3.86 -1.74,1.18 -3.68,1.37 -4.32,0.41 -0.64,-0.95 0.59,-2.91 1.99,-3.86 1.4,-0.94 3.56,-1.53 4.32,-0.41zm5.68 5.01c0.75,1.49 -0.73,3.29 -3.07,4.48 -2.35,1.19 -4.77,1.12 -5.43,-0.16 -0.65,-1.29 1.15,-3.51 3.07,-4.48 1.92,-0.98 4.67,-1.33 5.43,0.16zm0.76 7.28c0.86,1.75 -0.91,3.83 -3.67,5.17 -2.76,1.35 -5.59,1.21 -6.33,-0.3 -0.73,-1.51 1.41,-4.07 3.67,-5.17 2.26,-1.1 5.48,-1.45 6.33,0.3z"/>
  <path class="fil4" d="M21.37 78.71l106.85 0 0 66.96c0,2.36 -1.92,4.27 -4.28,4.27l-98.3 0c-2.36,0 -4.27,-1.91 -4.27,-4.27l0 -66.96z"/>
  <g style="clip-path:url(#id0)">
   <g id="_1534508061648">
    <polygon id="_1" class="fil5" points="34.95,103.64 114.63,103.64 128.22,125.01 21.37,125.01 "/>
    <g>
     <path class="fil6" d="M128.22 78.17c0.25,0 0.46,0.24 0.46,0.54 0,0.29 -0.21,0.53 -0.46,0.53l0 -1.07zm-106.85 0l106.85 0 0 1.07 -106.85 0 0 -1.07zm0 1.07c-0.26,0 -0.47,-0.24 -0.47,-0.53 0,-0.3 0.21,-0.54 0.47,-0.54l0 1.07z"/>
    </g>
    <path class="fil7" d="M21.37 121.67c3.24,-0.23 7.19,-2.71 9.72,-0.67 3.88,3.11 -1.62,7.98 2.87,10.11 5.7,2.72 0.83,8.57 6.61,11.12 4.49,1.97 13.05,3.84 20.84,1.85 7.79,-2 8.92,3.9 13.38,5.86l-53.42 0 0 -28.27z"/>
    <g>
     <path class="fil8" d="M132.7 149.41c0.28,0 0.51,0.23 0.51,0.53 0,0.29 -0.23,0.53 -0.51,0.53l0 -1.06zm-116.18 0l116.18 0 0 1.06 -116.18 0 0 -1.06zm0 1.06c-0.28,0 -0.51,-0.24 -0.51,-0.53 0,-0.3 0.23,-0.53 0.51,-0.53l0 1.06z"/>
    </g>
   </g>
  </g>
  <path class="fil5" d="M21.37 78.71l106.85 0 0 66.96c0,2.36 -1.92,4.27 -4.28,4.27l-98.3 0c-2.36,0 -4.27,-1.91 -4.27,-4.27l0 -66.96z"/>
  <polygon class="fil9" points="34.95,57.34 13.58,78.71 0,100.08 21.37,78.71 "/>
  <polygon class="fil9" points="114.63,57.34 136,78.71 149.59,100.08 128.22,78.71 "/>
  <path class="fil10" d="M57.1 60.32c-0.9,0.44 -1.39,-0.42 -0.57,-0.89 3.67,-2.15 2.64,-3.69 -0.89,-2.26 -0.97,0.39 -1.23,-0.59 -0.45,-0.97 4.86,-2.35 7.04,1.58 1.91,4.12z"/>
  <path class="fil10" d="M92.46 62.21c-1.15,-0.45 -1.78,0.72 -0.74,1.22 4.71,2.26 3.4,4.37 -1.13,3.01 -1.25,-0.38 -1.57,0.92 -0.58,1.3 6.23,2.38 9.02,-2.95 2.45,-5.53z"/>
  <path class="fil10" d="M56.84 52.59c-0.8,0.39 -1.24,-0.37 -0.51,-0.8 3.28,-1.92 2.37,-3.29 -0.79,-2.02 -0.87,0.36 -1.1,-0.52 -0.4,-0.86 4.34,-2.11 6.29,1.41 1.7,3.68z"/>
  <path class="fil10" d="M92.46 52.25c-1.03,-0.4 -1.59,0.64 -0.66,1.08 4.21,2.03 3.04,3.91 -1.01,2.69 -1.12,-0.33 -1.41,0.83 -0.52,1.17 5.57,2.12 8.06,-2.64 2.19,-4.94z"/>
  <path class="fil10" d="M52.32 46.97c-0.54,0.37 -0.94,-0.14 -0.46,-0.53 2.2,-1.73 1.39,-2.64 -0.78,-1.38 -0.6,0.34 -0.85,-0.27 -0.38,-0.59 2.94,-1.98 4.72,0.38 1.62,2.5z"/>
  <path class="fil10" d="M96.94 46.13c-0.69,-0.4 -1.2,0.31 -0.58,0.74 2.81,1.93 1.77,3.2 -1.01,1.88 -0.76,-0.36 -1.09,0.46 -0.48,0.8 3.77,2.16 6.05,-1.1 2.07,-3.42z"/>
  <path class="fil10" d="M46.52 44.58c-0.43,0.24 -0.7,-0.16 -0.31,-0.42 1.73,-1.18 1.18,-1.9 -0.51,-1.08 -0.47,0.22 -0.63,-0.25 -0.26,-0.46 2.32,-1.32 3.52,0.54 1.08,1.96z"/>
  <path class="fil10" d="M103.11 42.07c-0.54,-0.26 -0.89,0.29 -0.39,0.58 2.22,1.27 1.51,2.28 -0.66,1.45 -0.59,-0.23 -0.8,0.4 -0.32,0.62 2.97,1.39 4.5,-1.16 1.37,-2.65z"/>
  <path class="fil10" d="M41.45 43.57c-0.27,0.18 -0.46,-0.08 -0.22,-0.26 1.11,-0.82 0.73,-1.28 -0.36,-0.7 -0.3,0.16 -0.42,-0.15 -0.18,-0.3 1.48,-0.93 2.32,0.27 0.76,1.26z"/>
  <path class="fil10" d="M109.04 40.19c-0.35,-0.19 -0.59,0.17 -0.28,0.37 1.42,0.9 0.93,1.54 -0.46,0.94 -0.39,-0.17 -0.54,0.24 -0.23,0.4 1.9,0.99 2.97,-0.64 0.97,-1.71z"/>
  <path class="fil10" d="M37.71 42.65c-0.2,0.14 -0.35,-0.05 -0.17,-0.19 0.79,-0.64 0.49,-0.97 -0.29,-0.51 -0.22,0.13 -0.32,-0.09 -0.15,-0.21 1.07,-0.74 1.73,0.12 0.61,0.91z"/>
  <path class="fil10" d="M113 38.24c-0.25,-0.15 -0.44,0.11 -0.22,0.26 1.02,0.72 0.64,1.19 -0.37,0.69 -0.28,-0.14 -0.4,0.17 -0.18,0.29 1.37,0.81 2.21,-0.38 0.77,-1.24z"/>
  <path class="fil11" d="M61.65 87.88l26.29 0c2.95,0 5.34,2.39 5.34,5.35 0,2.95 -2.39,5.34 -5.34,5.34l-0.02 0 -26.25 0 -0.02 0c-2.95,0 -5.34,-2.39 -5.34,-5.34 0,-2.96 2.39,-5.35 5.34,-5.35z"/>
  <g style="clip-path:url(#id1)">
   <g>
    <g>
     <path id="_1_0" class="fil12" d="M76.57 93.46c0,0 -0.1,0.67 -0.34,1.58 -0.33,1.24 -0.93,2.94 -1.87,3.98 -0.29,0.32 -0.19,0.73 0.07,1.11 0.31,0.46 0.85,0.86 1.26,0.99 0.11,0.04 0.23,0.07 0.35,0.09 3.35,0.64 1.58,-6.88 0.53,-7.75l0 0z"/>
     <path class="fil10" d="M77.47 95.33l-0.02 0.07c-0.33,1.24 -0.92,2.94 -1.87,3.98 -0.29,0.32 -0.19,0.73 0.08,1.11 0.2,0.3 0.49,0.57 0.79,0.76l0 0c0.03,0 0.05,0 0.08,-0.01l0.02 0c0.08,0 0.16,-0.02 0.24,-0.04l0.02 0c0.07,-0.02 0.14,-0.05 0.2,-0.08l0.02 -0.01c0.02,-0.01 0.04,-0.02 0.06,-0.03l0.01 0c0.04,-0.03 0.08,-0.05 0.12,-0.08l0.01 -0.01c0.02,-0.01 0.04,-0.03 0.06,-0.04l0 -0.01c0.04,-0.03 0.07,-0.07 0.11,-0.1l0 -0.01c0.02,-0.02 0.03,-0.04 0.05,-0.05l0.01 -0.02c0.03,-0.04 0.06,-0.08 0.09,-0.12l0 0c0.02,-0.02 0.03,-0.05 0.04,-0.07l0.01 -0.01c0.04,-0.07 0.07,-0.14 0.11,-0.22l0.01 -0.02 0.03 -0.07c0.01,-0.03 0.02,-0.06 0.03,-0.09l0.02 -0.07 0.01 -0.03 0.02 -0.08 0.01 -0.02c0.01,-0.05 0.02,-0.1 0.04,-0.15l0 -0.04 0.02 -0.08 0.01 -0.03c0,-0.05 0.01,-0.1 0.02,-0.15l0.01 -0.05 0.01 -0.08 0 -0.05 0.01 -0.07 0.01 -0.11 0 -0.01 0.01 -0.08 0 -0.06 0 -0.08 0.01 -0.11 0 -0.01 0 -0.06 0 -0.09 0 -0.07 0 -0.12 -0.01 -0.1 0 -0.05 0 -0.08 0 -0.01 -0.01 -0.12 0 -0.09 -0.01 -0.06 0 -0.09 -0.01 -0.01 -0.01 -0.12 0 -0.01 0 -0.03 -0.01 -0.12 -0.01 -0.05 -0.01 -0.12 -0.01 -0.04 0 0 -0.02 -0.13 0 -0.02 -0.01 -0.06 -0.02 -0.13 0 -0.02 0 -0.01 -0.02 -0.13 -0.01 -0.01 -0.01 -0.09 -0.01 -0.05 -0.02 -0.09 0 0 -0.02 -0.13 -0.02 -0.09 -0.01 -0.03 -0.02 -0.08 0 -0.04 -0.03 -0.12 -0.01 -0.02 0 -0.03 -0.03 -0.1 -0.02 -0.08 0 0 -0.03 -0.12 0 -0.01 -0.01 -0.02 -0.03 -0.11 0 -0.03 -0.02 -0.06 -0.03 -0.11 0 0 -0.03 -0.11z"/>
    </g>
    <g>
     <path class="fil8" d="M93.28 87.64c0.09,0 0.16,0.11 0.16,0.24 0,0.14 -0.07,0.25 -0.16,0.25l0 -0.49zm-36.97 0l36.97 0 0 0.49 -36.97 0 0 -0.49zm0 0.49c-0.09,0 -0.17,-0.11 -0.17,-0.25 0,-0.13 0.08,-0.24 0.17,-0.24l0 0.49z"/>
    </g>
    <g>
     <g>
      <path class="fil5 str0" d="M88.9 87.88c-3.48,0 -6.3,2.83 -6.3,6.31 0,3.48 2.82,6.3 6.3,6.3 3.48,0 6.31,-2.82 6.31,-6.3 0,-3.48 -2.83,-6.31 -6.31,-6.31z"/>
      <path id="_1_1" class="fil13" d="M88.9 87.88c-3.48,0 -6.3,2.83 -6.3,6.31 0,3.48 2.82,6.3 6.3,6.3 3.48,0 6.31,-2.82 6.31,-6.3 0,-3.48 -2.83,-6.31 -6.31,-6.31z"/>
     </g>
     <path class="fil14" d="M88.87 89.77c0.36,0 0.72,0.05 1.05,0.13 -1.83,2.12 1.11,5.06 3.23,3.23 0.09,0.34 0.13,0.69 0.13,1.06 0,2.44 -1.97,4.41 -4.41,4.41 -2.44,0 -4.42,-1.97 -4.42,-4.41 0,-2.44 1.98,-4.42 4.42,-4.42z"/>
    </g>
    <g>
     <path class="fil6" d="M93.28 98.32c0.09,0 0.16,0.11 0.16,0.25 0,0.13 -0.07,0.24 -0.16,0.24l0 -0.49zm-36.97 0l36.97 0 0 0.49 -36.97 0 0 -0.49zm0 0.49c-0.09,0 -0.17,-0.11 -0.17,-0.24 0,-0.14 0.08,-0.25 0.17,-0.25l0 0.49z"/>
    </g>
   </g>
  </g>
  <path class="fil5" d="M61.65 87.88l26.29 0c2.95,0 5.34,2.39 5.34,5.35 0,2.95 -2.39,5.34 -5.34,5.34l-0.02 0 -26.25 0 -0.02 0c-2.95,0 -5.34,-2.39 -5.34,-5.34 0,-2.96 2.39,-5.35 5.34,-5.35z"/>
  <g>
   <path class="fil8" d="M79.2 120.36l0 -3.82c0,-0.27 -0.22,-0.48 -0.48,-0.48l-3.51 0c-0.18,0 -0.35,0.1 -0.43,0.26l-0.79 1.92c-0.12,0.23 -0.03,0.52 0.21,0.64l1.27 0.71 -1.53 2.06 0 -1.29c0,-0.18 -0.11,-0.34 -0.27,-0.42l-1.38 -0.78 0.82 -2.47c0.05,-0.15 0.03,-0.31 -0.06,-0.43 -0.09,-0.13 -0.24,-0.2 -0.39,-0.2l-3.51 0c-0.26,0 -0.48,0.21 -0.48,0.48l0 3.82c0,2.36 1.59,4.43 3.83,5.07l0 2.43 -0.48 0c-1.32,0 -2.39,1.07 -2.39,2.39 0,0.26 0.21,0.48 0.48,0.48l7.65 0c0.27,0 0.48,-0.22 0.48,-0.48 0,-1.32 -1.07,-2.39 -2.39,-2.39l-0.48 0 0 -2.43c2.24,-0.64 3.83,-2.71 3.83,-5.07z"/>
   <path class="fil8" d="M58.82 116.27l4.52 5.46c0,0 0.69,0.65 -0.06,0.65 -0.74,0 -2.55,0 -2.55,0 0,0 0,0.44 0,1.11 0,1.93 0,5.43 0,6.85 0,0 0.1,0.39 -0.48,0.39 -0.59,0 -3.17,0 -3.59,0 -0.42,0 -0.41,-0.33 -0.41,-0.33 0,-1.38 0,-5 0,-6.86 0,-0.6 0,-0.99 0,-0.99 0,0 -1.45,0 -2.36,0 -0.9,0 -0.22,-0.68 -0.22,-0.68 0,0 3.85,-5.11 4.38,-5.65 0.4,-0.39 0.77,0.05 0.77,0.05z"/>
   <path class="fil8" d="M89.29 128.44c0,0.25 -0.21,0.45 -0.46,0.45 -0.25,0 -0.46,-0.2 -0.46,-0.45 0,-0.51 -0.41,-0.92 -0.92,-0.92 -0.5,0 -0.91,0.41 -0.91,0.92 0,1.2 0.93,2.17 2.1,2.27 0.06,0.01 0.12,0.02 0.19,0.02 0.06,0 0.12,-0.01 0.18,-0.02 1.18,-0.1 2.11,-1.07 2.11,-2.27l0 -5.88c0.13,-0.05 0.28,-0.08 0.46,-0.08 0.56,0 0.92,0.34 0.92,0.45 0,0.26 0.2,0.46 0.45,0.46 0.26,0 0.46,-0.2 0.46,-0.46 0,-0.11 0.36,-0.45 0.92,-0.45 0.56,0 0.92,0.34 0.92,0.45 0,0.26 0.2,0.46 0.45,0.46 0.26,0 0.46,-0.2 0.46,-0.46 0,-2.97 -2.19,-5.43 -5.04,-5.88l0 -0.08c0,-0.5 -0.41,-0.91 -0.92,-0.91 -0.5,0 -0.91,0.41 -0.91,0.91l0 0.08c-2.86,0.45 -5.05,2.91 -5.05,5.88 0,0.26 0.21,0.46 0.46,0.46 0.26,0 0.46,-0.2 0.46,-0.46 0,-0.11 0.36,-0.45 0.92,-0.45 0.55,0 0.91,0.34 0.91,0.45 0,0.26 0.21,0.46 0.46,0.46 0.26,0 0.46,-0.2 0.46,-0.46 0,-0.11 0.36,-0.45 0.92,-0.45 0.17,0 0.33,0.03 0.46,0.08l0 5.88z"/>
  </g>
  <g>
   <path class="fil12" d="M67.15 97.47c-0.45,4.25 0.91,10.32 0.94,10.46 -1.34,-0.34 -6.68,-10.4 -2.94,-12.04 0.86,-0.37 2.24,-0.69 2,1.58z"/>
   <path class="fil10" d="M65.2 95.87c-0.23,4.17 0.96,9.53 1,9.68 -1.81,-3.17 -3.68,-8.51 -1.05,-9.66l0.05 -0.02z"/>
  </g>
  <g>
   <path class="fil12" d="M71.23 97.95c-0.62,3.33 0.28,8.38 0.28,8.38 -1.17,-0.39 -5.51,-9.11 -2.06,-10.09 0.79,-0.23 2.12,-0.07 1.78,1.71z"/>
   <path class="fil10" d="M69.47 96.26c-0.45,2.36 -0.12,5.6 0.11,7.27 -1.33,-2.76 -2.37,-6.65 -0.13,-7.29l0.02 -0.01 0 0.03z"/>
  </g>
  <g>
   <path class="fil12" d="M62.91 96.89c-0.63,3.48 0.25,8.57 0.25,8.57 -1.15,-0.27 -5.42,-8.81 -2.02,-10.13 0.75,-0.29 2.1,-0.31 1.77,1.56z"/>
   <path class="fil10" d="M60.97 95.41c-0.34,3.36 0.38,7.53 0.39,7.57l-0.06 -0.12 -0.07 -0.13c-0.04,-0.08 -0.08,-0.17 -0.12,-0.26l-0.06 -0.13c-0.05,-0.13 -0.11,-0.26 -0.17,-0.4l0 0 -0.05 -0.12 -0.02 -0.04c-0.08,-0.21 -0.17,-0.43 -0.25,-0.66l-0.01 -0.02 -0.04 -0.13 -0.05 -0.14 -0.05 -0.13 0 -0.02 -0.05 -0.13 -0.04 -0.14 0 -0.01 -0.04 -0.12 -0.01 -0.06 -0.03 -0.1 -0.04 -0.14 -0.01 -0.01 -0.03 -0.12 -0.01 -0.04 -0.05 -0.21 -0.02 -0.06 -0.02 -0.12 -0.03 -0.14 -0.03 -0.12 0 -0.04 -0.03 -0.12 -0.02 -0.14 -0.02 -0.11 0 -0.05 -0.02 -0.11 -0.02 -0.13 0 0 -0.01 -0.12 0 -0.03c-0.01,-0.08 -0.01,-0.15 -0.02,-0.22l0 -0.03 0 -0.11 -0.01 -0.04c0,-0.07 0,-0.14 0,-0.21l0 -0.03 0 -0.11 0.01 -0.02c0,-0.07 0,-0.13 0.01,-0.19l0 -0.05 0.01 -0.09 0.01 -0.04c0,-0.06 0.01,-0.11 0.02,-0.17l0.01 -0.05 0.02 -0.09c0,-0.03 0.01,-0.07 0.02,-0.1l0 0 0.02 -0.08 0.02 -0.05c0.01,-0.06 0.03,-0.11 0.05,-0.16l0.01 -0.02 0.03 -0.08 0.02 -0.05c0.02,-0.04 0.04,-0.08 0.06,-0.11l0.02 -0.05 0.04 -0.06 0.02 -0.05c0.03,-0.03 0.05,-0.07 0.07,-0.1l0.04 -0.04 0.04 -0.06 0.04 -0.05c0.03,-0.02 0.06,-0.05 0.08,-0.08l0.04 -0.03c0.02,-0.02 0.04,-0.04 0.06,-0.06l0 0c0.03,-0.02 0.05,-0.04 0.08,-0.06 0.02,-0.02 0.04,-0.03 0.06,-0.04l0.05 -0.03c0.02,-0.02 0.04,-0.03 0.06,-0.04l0 0c0.03,-0.02 0.06,-0.04 0.1,-0.05z"/>
  </g>
  <g>
   <path class="fil12" d="M59.05 95.83c-0.59,2.56 -0.19,6.47 -0.19,6.47 -0.8,-0.32 -3.31,-6.92 -0.99,-7.82 0.7,-0.27 1.5,-0.05 1.18,1.35z"/>
   <path class="fil10" d="M57.73 94.54c-0.36,2.5 -0.04,5.68 -0.04,5.69 -0.76,-2.05 -1.31,-4.96 0.04,-5.69z"/>
  </g>
  <path class="fil15" d="M93.27 132.05l30.62 -8.2c1.52,-0.41 3.08,-0.13 4.33,0.64l0 20.32 -19.14 5.13 -16.59 0c-0.19,-0.36 -0.34,-0.74 -0.45,-1.15l-2.68 -9.98c-0.78,-2.93 0.98,-5.97 3.91,-6.76z"/>
  <path class="fil16" d="M106.01 142.87l0.54 2.03 -1.82 0.49 -0.54 -2.03 -4.64 1.24 -0.43 -1.6 2.19 -7.39 2.57 -0.68 1.69 6.3 1.51 -0.41 0.44 1.64 -1.51 0.41zm-3.45 -5.66l-1.63 5.26 2.84 -0.76 -1.21 -4.5z"/>
  <path id="_1_2" class="fil16" d="M115.24 137.18c0.22,0.82 0.33,1.57 0.32,2.27 0,0.69 -0.12,1.31 -0.34,1.85 -0.23,0.53 -0.55,0.98 -0.99,1.35 -0.43,0.37 -0.96,0.64 -1.6,0.81 -0.55,0.14 -1.08,0.18 -1.59,0.11 -0.52,-0.06 -1,-0.26 -1.45,-0.59 -0.44,-0.32 -0.85,-0.78 -1.21,-1.38 -0.36,-0.59 -0.66,-1.34 -0.9,-2.24 -0.22,-0.82 -0.33,-1.58 -0.32,-2.27 0.01,-0.7 0.12,-1.31 0.34,-1.85 0.22,-0.54 0.55,-0.99 0.99,-1.36 0.44,-0.37 0.97,-0.63 1.6,-0.8 0.55,-0.15 1.08,-0.19 1.6,-0.12 0.51,0.07 0.99,0.27 1.43,0.59 0.45,0.32 0.85,0.78 1.21,1.38 0.36,0.59 0.67,1.34 0.91,2.25zm-5.9 1.62c0.03,0.1 0.05,0.2 0.07,0.28 0.03,0.09 0.06,0.18 0.09,0.27l3.02 -3.71c-0.31,-0.45 -0.65,-0.76 -1.01,-0.93 -0.35,-0.16 -0.73,-0.19 -1.13,-0.09 -0.28,0.08 -0.53,0.22 -0.73,0.44 -0.21,0.21 -0.36,0.49 -0.46,0.83 -0.1,0.35 -0.15,0.77 -0.13,1.25 0.02,0.48 0.11,1.03 0.28,1.66zm4.04 -1.05c-0.02,-0.09 -0.05,-0.18 -0.08,-0.27 -0.03,-0.08 -0.05,-0.17 -0.07,-0.25l-3.01 3.69c0.3,0.45 0.63,0.75 0.99,0.91 0.36,0.16 0.73,0.19 1.12,0.08 0.29,-0.07 0.54,-0.22 0.74,-0.43 0.21,-0.22 0.36,-0.5 0.47,-0.84 0.1,-0.35 0.14,-0.76 0.12,-1.25 -0.02,-0.48 -0.11,-1.03 -0.28,-1.64z"/>
  <path id="_2" class="fil16" d="M123.2 138.26l0.55 2.03 -1.82 0.49 -0.55 -2.03 -4.64 1.24 -0.42 -1.59 2.18 -7.39 2.57 -0.69 1.69 6.3 1.52 -0.41 0.44 1.65 -1.52 0.4zm-3.44 -5.66l-1.63 5.26 2.83 -0.76 -1.2 -4.5z"/>
 </g>
</svg>
